{
    "asset" : {
        "generator" : "Khronos glTF Blender I/O v3.3.32",
        "version" : "2.0"
    },
    "extensionsUsed" : [
        "KHR_materials_clearcoat"
    ],
    "scene" : 0,
    "scenes" : [
        {
            "name" : "Scene",
            "nodes" : [
                0
            ]
        }
    ],
    "nodes" : [
        {
            "mesh" : 0,
            "name" : "dice"
        }
    ],
    "materials" : [
        {
            "doubleSided" : true,
            "extensions" : {
                "KHR_materials_clearcoat" : {
                    "clearcoatFactor" : 0.209090918302536,
                    "clearcoatRoughnessFactor" : 0.15121212601661682
                }
            },
            "name" : "Blanc",
            "pbrMetallicRoughness" : {
                "baseColorFactor" : [
                    0.800000011920929,
                    0.800000011920929,
                    0.800000011920929,
                    1
                ],
                "metallicFactor" : 0.0055098384618759155,
                "roughnessFactor" : 0.22451791167259216
            }
        },
        {
            "doubleSided" : true,
            "extensions" : {
                "KHR_materials_clearcoat" : {
                    "clearcoatFactor" : 0.13223139941692352,
                    "clearcoatRoughnessFactor" : 0
                }
            },
            "name" : "Noir",
            "pbrMetallicRoughness" : {
                "baseColorFactor" : [
                    0,
                    0,
                    0,
                    1
                ],
                "metallicFactor" : 0.5,
                "roughnessFactor" : 0.26584023237228394
            }
        }
    ],
    "meshes" : [
        {
            "name" : "Maillage",
            "primitives" : [
                {
                    "attributes" : {
                        "POSITION" : 0,
                        "NORMAL" : 1,
                        "COLOR_0" : 2
                    },
                    "indices" : 3,
                    "material" : 0
                },
                {
                    "attributes" : {
                        "POSITION" : 4,
                        "NORMAL" : 5,
                        "COLOR_0" : 6
                    },
                    "indices" : 7,
                    "material" : 1
                }
            ]
        }
    ],
    "accessors" : [
        {
            "bufferView" : 0,
            "componentType" : 5126,
            "count" : 13949,
            "max" : [
                0.9989686608314514,
                0.9944018721580505,
                0.9968766570091248
            ],
            "min" : [
                -1.0010321140289307,
                -1.0056434869766235,
                -1.0031241178512573
            ],
            "type" : "VEC3"
        },
        {
            "bufferView" : 1,
            "componentType" : 5126,
            "count" : 13949,
            "type" : "VEC3"
        },
        {
            "bufferView" : 2,
            "componentType" : 5123,
            "count" : 13949,
            "normalized" : true,
            "type" : "VEC4"
        },
        {
            "bufferView" : 3,
            "componentType" : 5123,
            "count" : 81792,
            "type" : "SCALAR"
        },
        {
            "bufferView" : 4,
            "componentType" : 5126,
            "count" : 7077,
            "max" : [
                0.9843734502792358,
                0.9797618389129639,
                0.982281506061554
            ],
            "min" : [
                -0.9864367842674255,
                -0.9910480976104736,
                -0.9885290265083313
            ],
            "type" : "VEC3"
        },
        {
            "bufferView" : 5,
            "componentType" : 5126,
            "count" : 7077,
            "type" : "VEC3"
        },
        {
            "bufferView" : 6,
            "componentType" : 5123,
            "count" : 7077,
            "normalized" : true,
            "type" : "VEC4"
        },
        {
            "bufferView" : 7,
            "componentType" : 5123,
            "count" : 40320,
            "type" : "SCALAR"
        }
    ],
    "bufferViews" : [
        {
            "buffer" : 0,
            "byteLength" : 167388,
            "byteOffset" : 0,
            "target" : 34962
        },
        {
            "buffer" : 0,
            "byteLength" : 167388,
            "byteOffset" : 167388,
            "target" : 34962
        },
        {
            "buffer" : 0,
            "byteLength" : 111592,
            "byteOffset" : 334776,
            "target" : 34962
        },
        {
            "buffer" : 0,
            "byteLength" : 163584,
            "byteOffset" : 446368,
            "target" : 34963
        },
        {
            "buffer" : 0,
            "byteLength" : 84924,
            "byteOffset" : 609952,
            "target" : 34962
        },
        {
            "buffer" : 0,
            "byteLength" : 84924,
            "byteOffset" : 694876,
            "target" : 34962
        },
        {
            "buffer" : 0,
            "byteLength" : 56616,
            "byteOffset" : 779800,
            "target" : 34962
        },
        {
            "buffer" : 0,
            "byteLength" : 80640,
            "byteOffset" : 836416,
            "target" : 34963
        }
    ],
    "buffers" : [
        {
            "byteLength" : 917056,
            "uri" : "data:application/octet-stream;base64,"
        }
    ]
}
